<svg xmlns="http://www.w3.org/2000/svg" width="1024" height="1024" viewBox="0 0 1024 1024">
  <defs>
    <style>
      .cls-1 {
        fill: #7fff00;
        fill-rule: evenodd;
      }
    </style>
  </defs>
  <path id="_10_1" data-name="10 1" class="cls-1" d="M517.469,233l121.572,16.506L692.1,256.96l82.647,154.408L811,574.3,692.894,727.107l-89.045,37.8L543.6,791,442.553,763.579l-86.646-23.161-44.789-62.562L245,586.276V424.147L349.242,252.7Zm0.267,12.779L374.3,262.817l0.533,0.266,54.654,30.083H634.242c5.751,0,18.679,1.362,22.928-.532l18.662-25.291-0.267-.267ZM355.374,267.343Q306.591,347.467,257.8,427.608V573.5L356.44,519.72q31.99-108.474,63.985-216.97ZM686.5,274.531q-9.731,12.909-19.462,25.823l30.393,78.535q25.99,67.614,51.988,135.241l43.989,40.2Q777.942,484.72,762.478,415.1q-21.192-39.131-42.39-78.269l-23.461-43.66Zm-253.54,31.414Q401.1,413.887,369.237,521.85L560.392,652.032,736.618,515.993,655.3,305.945H432.956Zm310.86,220.431L566.524,663.48q-7.863,55.1-15.729,110.216l134.1-56.972,65.052-84.658q15.861-20.5,31.726-41c3.545-4.691,11.882-12.352,13.6-17.837Zm-382.577,5.591L261,586.276v0.266L363.639,729.237l173.825,46.855,0.267-.267q8-56.433,16-112.877Z"/>
</svg>
