<svg xmlns="http://www.w3.org/2000/svg" width="1024" height="1024" viewBox="0 0 1024 1024">
  <defs>
    <style>
      .cls-1 {
        fill: #7fff00;
        fill-rule: evenodd;
      }
    </style>
  </defs>
  <path id="_2_1" data-name="2 1" class="cls-1" d="M459.921,217l128.6,0.29L660.2,239.938,713.3,277.974l43.36,30.2,18.877,34.843,30.087,53.715q7.815,28.452,15.633,56.91Q828.625,479.768,836,505.9l-12.094,38.326q-7.225,24.1-14.453,48.2-11.207,25.549-22.417,51.1-11.944,28.015-23.892,56.038c-12.275,18.969-33.532,29.673-52.5,42.1l-64.892,42.682-30.086,12.776L593.835,807l-95.864-.29H471.129l-41-13.066-31.856-9.582-38.64-27.293-60.468-41.811-19.172-35.424c-12.094-20.4-24.7-39.621-32.151-64.168Q234.422,566.447,221,517.517q6.932-20.9,13.863-41.811c12.7-39.46,26.692-74.74,42.18-110.625q8.7-21.194,17.4-42.392l18.878-19.744,95.863-63.007Zm4.129,13.937L402.4,277.1l40.41,43.263H556.374l64.007-45.295-0.59-.581-36.87-43.553H464.05ZM607.4,237.906l27.726,32.81,57.224,29.035,41.884,21.486,6.2-6.968-0.3-.581-87.015-61.555ZM631,284.362l-64.3,45.586q14.894,49.211,29.791,98.43l97.043,50.812,65.482-44.134q-14.6-50.08-29.2-100.172Zm-240.986.581L305.95,331.69q-12.093,29.323-24.187,58.652-9.144,21.629-18.288,43.262l4.719,4.356,35.986,37.165,84.36-46.747q5.6-13.065,11.208-26.132l31.266-74.04Q410.516,306.576,390.014,284.943Zm359.562,40.069-6.2,6.678q15.189,51.967,30.382,103.947l22.122,39.488,18.878,34.262L818.6,505.9l2.065-2.614L792.345,401.375Zm-305.583,9q-14.747,35.274-29.5,70.556c-1.907,4.432-11.455,22.869-10.323,26.132l87.9,56.329,89.964-57.2q-14.3-47.9-28.612-95.817H443.993Zm-49.849,106.85L310.079,487.61q0.885,41.226,1.77,82.461c1.2,7.811-2.082,23.158,1.18,28.745l87.014,61.845c6.475-1.466,19.335-11.177,25.367-14.808l59.878-35.423V531.454c0-7,1.538-28.132-.59-32.81Zm196.151,0-90.849,58.652V610.72L590,660.952l96.748-59.233V491.385Zm174.324,7.259L700.906,490.8V600.558h0.59l47.49,13.356c2.674,0.755,14.336,4.179,15.338,3.485q20.5-47.9,41-95.817Zm-506.454.29q-11.207,34.695-22.417,69.4L262.3,615.076l35.986-18q-1.18-55.307-2.36-110.625ZM804.439,559.328l-12.684,29.616c-8.944,20.764-17.428,40.556-23.892,63.878h0.295l8.554-19.744c7.233-16.684,15.03-32.6,20.648-50.232Q800.9,571.089,804.439,559.328ZM304.18,609.849l-36.871,18.293,42.475,76.944,56.043,38.907,26.252,18.292c3.113,2.176,7.877,7.264,11.5,7.55l31.856-17.712-40.705-78.105L338.986,634.53Zm390.532,3.485-98.518,60.393q-10.323,38.323-20.647,76.654l65.482,20.325,95.863-62.717L759.6,631.336v-0.291Zm-202.345,9.291-82.885,49.36,39.82,75.783H561.683q10.029-37.743,20.058-75.492Zm-45.72,139.08L420.4,776.222l0.59,0.291,25.661,7.839,27.432,8.711H590.59l20.057-9,11.209-4.936-55.748-17.421H446.647Z"/>
</svg>
