<svg xmlns="http://www.w3.org/2000/svg" width="1024" height="1024" viewBox="0 0 1024 1024">
  <defs>
    <style>
      .cls-1 {
        fill: #7fff00;
        fill-rule: evenodd;
      }
    </style>
  </defs>
  <path id="_1_1" data-name="1 1" class="cls-1" d="M486.9,206.2c26.527-.183,67.457-1.644,85.955,6.968,5.979,2.784,17.569.064,23.443,2.787,10.175,4.718,38.054-.783,49.016,3.484,14.939,5.817,36,25.342,49.015,34.841,3.4,2.481,10.286,3.312,14.208,5.575l3.552,5.574c3.77,2.808,10.077,3.671,14.207,6.272,8.434,5.31,16.237,14.549,24.153,20.207,6.712,4.8,16.186,5.068,20.6,11.846,2.533,3.888.978,7.355,3.552,11.149a427.328,427.328,0,0,1,23.442,38.325c2.11,4.018.276,7.5,2.842,11.149,6.855,9.742,13.776,21.887,20.6,32.054,2.468,3.677.4,7.447,2.841,11.149,3.224,4.887,9.588,10.606,12.077,16.026,5.183,11.287,2.752,30.656,2.841,45.99,0.185,31.761,6.347,76.294-5.683,100.342v11.149c-7.329,16.251-6.418,40.154-14.918,55.745-4.042,7.415.9,15.762-2.841,23l-5.683,3.484c-9.45,11.429-16.578,24.4-26.994,34.841-3.294,3.3-9.169,5.517-12.077,9.058v4.878c-7.973,11.745-24.758,24.867-34.808,35.538q-1.067,2.787-2.131,5.574c-22.456,14.241-45.765,23.875-68.907,37.628-7.847,4.664-16.872,12.893-24.863,17.421-3.855,2.184-7.088,1.1-10.656,3.484L624,817.3H575.7c-46.6,0-103.113,5.016-132.841-11.846H431.49c-14.938-7.307-36.326-10.2-51.147-17.42H369.688c-9.116-4.413-27.892-29.469-36.23-37.628q-20.646-20.205-41.2-40.415l-14.918-12.543c-5.763-9.629-9.376-19.742-14.918-28.57v-5.574c-15.69-23.52-28.833-52.053-44.044-75.953-1.9-2.989,3.864-54.879,5.683-59.926V487.013c1.672-5.437,2.842-13.837,2.842-23V446.6c8.594-19.1,13.094-43.813,23.442-62.016,3.831-6.74,2.272-19.481,6.394-25.782,7.769-11.88,19.73-19.142,29.125-29.267,2.926-3.153,3.426-8.082,6.394-11.149,9.993-10.328,21.943-18.989,31.966-29.266,11.377-11.663,19.543-27.863,32.678-37.628,4.827-3.589,18.578-6.036,24.153-9.059h8.524c19.338-10.618,46.117-14.5,65.355-25.782C462.5,212.211,480.523,211.923,486.9,206.2ZM363.294,306.537c8.414,0,10.487-2.4,17.049-3.484,18.449-3.054,37.224-.555,52.568-5.574,11.873-3.884,28.417,2,39.071-2.787,8.34-3.748,14.436-13.08,22.021-17.421,17.475-10,36.6-20.4,50.437-34.144-4.677-6.463-16.469-5.369-24.153-9.058-5.28-2.535-13.934-8.617-20.6-9.059-9.743-.647-26.169,7.9-33.387,11.846h-8.525c-9.351,5.571-22.974,9.865-33.387,14.633h-7.815c-12.07,6.774-29.931,14.279-44.753,17.42C371.543,281.6,365.6,294.808,363.294,306.537Zm252.184-60.623c3.992,3.816,30.59,13.558,37.65,13.937v-0.7c-3.522-4.581-10.137-7.334-12.077-13.24H615.478Zm-51.147,10.453c-20.631,13.184-40.913,26.658-60.382,41.112q0.354,1.394.71,2.787c13.35-.156,27.037,1.437,35.519,6.271h18.47c3.871,1.2,16.257,3.78,19.89,5.575,4.878,2.409,14.458-.4,18.47,1.394-6.138-15.37-28.4-41.92-29.836-56.442Zm26.284,4.181c6.261,8.977,28.879,43.865,29.835,54.351,5.406-1.546,10.669-5.843,14.918-8.362h8.525c9.265-6,21.189-9.97,31.967-15.33h-1.421C671.543,288.141,598.077,261.029,590.615,260.548ZM341.983,312.112c0.008-8.518,2.441-9.941,2.841-17.42l-2.131.7c-2.271,10.717-15.327,17.171-21.311,25.086h2.841C326.126,316.636,336.5,312.308,341.983,312.112Zm354.478-8.362-0.711,2.091c-23.7,4.6-43.421,20.68-66.065,27.175,7.107,27.865,17.384,59.248,29.126,84.315,3.348,7.148,4.03,27.613,9.235,31.357,4.167,3,9.409.007,14.207,2.787,14.274,8.271,33.725,11.976,47.595,20.208,8.444,5.011,27.816,2.949,32.678,11.149l2.841-.7c-0.023-31.972,20.167-56.995,20.6-88.5-10.992-3.33-17.645-17.453-24.153-25.782-3.669-4.7-10-7.616-14.207-11.846-11.321-11.383-19.713-25.05-29.836-37.628-4.206-5.226-12.255-7.825-14.918-14.633h-6.393Zm42.622,9.059c2.349,5.176,17.88,22.394,22.732,25.782V335.8C754.694,324.144,754.753,316.455,739.083,312.809ZM366.136,326.745c0.995,16.934,18.795,43.385,23.442,61.32l2.842-.7c3.145-9.87,12.216-13.146,17.759-20.208,7.006-8.925,13.059-20.338,20.6-28.569,5.75-6.276,14.421-11.679,17.759-20.208C420.048,318.177,392.239,324.044,366.136,326.745Zm127.157-8.362c0.474,9.513,20.9,53.222,26.284,60.623,4.194,5.769,2.376,16.511,8.524,20.208,3.764-8.889,14.679-13.844,21.312-20.208,9.479-9.094,16.99-20.729,26.994-29.266,5.741-4.9,14.306-9.836,17.759-16.724C558.666,333.225,528.313,318.751,493.293,318.383Zm-23.442,5.575-0.711,5.574c-8.115,3.076-9.837,11.228-14.918,17.421-14.519,17.7-31.345,35.218-46.885,52.261,33.228-.076,66.847,5.5,100.164,5.574V402C496.429,396.541,482.026,330.391,469.851,323.958ZM371.819,402c-0.34-8.525-18.689-55.445-23.443-59.229v1.393c-5.375,2.161-6.19,11.361-9.235,16.027-11.763,18.027-28.146,39.062-35.518,59.926,10.915-2.807,21.832-4.954,30.546-9.058l11.366-.7C352.114,406.975,362.832,402.737,371.819,402ZM280.18,364.373c-0.158,15.6,5.1,27.527,6.394,41.112l2.131-.7c5.19-20.754,26.062-39.363,33.387-60.623C306.571,347.358,297.73,363.072,280.18,364.373Zm333.877-17.42-5.683.7c-2.418,6.341-57.325,58.653-64.644,62.016q0.354,0.7.71,1.394c7.632,0.926,16.912,5.287,22.732,8.362h10.656c14.852,6.513,48.482,18.958,66.065,20.207v-0.7c-8.468-12.234-11.56-32.626-17.76-45.989v-8.362C620.825,375.121,614.329,360.115,614.057,346.953ZM263.841,404.788c-7.315,13.287-9.2,31-15.628,43.9q-0.355,13.935-.71,27.872l-2.842,2.091c-4.758,12.778,2.423,32.9-2.841,44.6-4.645,10.317,2.819,33.261-1.421,43.9h4.262c11.241-20.085,7.062-53.9,17.76-75.256V475.864c4.215-10.808,8.624-34.47,5.683-43.2C264.8,422.856,269.793,411.487,263.841,404.788Zm87.377,136.576h4.972c4.431,7.39,11.9,9.29,18.47,14.633,16.594,13.5,31.11,28.548,49.727,40.416,9.464,6.033,12.555,17.569,26.994,17.42,3.761-8.86,21.843-14.487,29.836-20.208,1.143-.818,1.714-4.688,2.841-5.574,4.388-3.45,9.276-3.448,14.208-6.271,2.67-1.53,4.653-6.608,7.1-8.362,13.758-9.846,29.664-15.35,41.2-27.176-3.031-15.778-7.832-41.443-14.918-54.352V481.438c-7.324-13.909-14.647-36.747-14.918-55.745-40.989.143-81.4-5.632-123.605-6.271-1.815,13.369-14.8,44.548-21.311,55.048v8.362c-2.019,4.287-6.235,11.352-8.525,15.33v7.665C358.4,516.149,351.479,527.067,351.218,541.364ZM302.912,420.815l-0.71,1.394h1.421ZM366.846,425c-9.882,3.61-69.21,16.465-71.748,20.208,4.536,2.594,3.352,7.774,6.393,11.846,9.255,12.389,16.289,28.718,25.574,41.112,3.952,5.275,3.669,13.165,8.524,17.42H336.3c2.865-12.17,9.649-25.65,14.918-35.538,3.755-7.045,2.5-16.79,5.683-24.388,3.778-9.026,11.34-19.428,12.076-30.66h-2.131Zm171.2,6.271c5.017,22.745,11.361,50.386,19.89,71.076,3.941,9.56,2.854,19.546,7.1,27.872,20.631-14.585,37.639-35.33,55.409-52.958,5.483-5.438,14.285-9.5,17.76-16.723-16.64-5.2-38.36-9.41-53.278-17.421-6.607-3.547-13.945-.076-20.6-3.484C557.113,435.934,548.4,431.62,538.047,431.267Zm245.08,60.623c13.313,0.813,20.9,11.648,32.677,14.633v-2.787c-2-7.388-3.762-15.067-6.394-20.9V471.683a73.734,73.734,0,0,1-9.234-32.054l-2.132-.7-2.841.7C795.257,459.455,784.644,473.53,783.127,491.89ZM271.656,556c4.729-.231,48.862-17.913,50.436-20.207-3.607-11.095-10.571-18.092-15.628-27.176-3.063-5.5-2.3-10.665-5.683-16.027-4.067-6.443-11.057-11.027-12.076-20.9h-2.842c-2.72,11.115-3.369,28.1-8.524,37.628v16.026A94.785,94.785,0,0,0,271.656,556Zm402.073-84.314c-0.137,13.1,3.587,28.907,8.524,38.325q0.356,6.968.71,13.936c5.47,12.425,4.843,29.627,9.946,43.2l1.42,0.7,2.842-.7c1.463-4.6,51.052-63.552,54.7-65.5-2.8-7.566-18.126-5.53-24.863-9.756C719.185,486.985,683.294,472.72,673.729,471.683Zm-22.022,5.574c-12.867,14.41-28.408,30.92-43.333,43.2-9.418,7.75-24.187,14.852-29.125,26.479,8.483,0.744,17.57,5.525,23.442,9.058,3.773,2.271,12.8,1.191,17.759,2.788,16.136,5.189,35.344,16.069,53.279,17.42-5.57-21.422-7.8-45.676-14.918-65.5V498.162C656.478,493.033,654.66,482.53,651.707,477.257Zm166.938,52.958c-13.876-.819-22.19-12.7-35.518-15.33-0.174,16.812-.527,37.652,2.841,50.171q0.356,12.889.71,25.782v-1.393C791.14,585.311,817.936,536.944,818.645,530.215Zm-58.961-6.271c-1.344,3.716-50.7,60.268-53.278,61.32v2.787c9.564,2.756,21.273,9.129,29.125,13.936l7.814,0.7c6.878,3.345,14.209,6.132,22.022,9.755,0.1-32.407-3.463-58.531-3.552-88.495h-2.131ZM324.934,556c-1.894,3.86-42.933,19.722-50.437,20.208v2.787c13.241,4.425,40.442,50.594,55.409,61.32,0.077-30.548-2.765-55.985-2.841-84.315h-2.131Zm23.442,8.362c-0.062,32.958,2.781,57.35,2.842,89.889,21.846-5.043,48.535-25.219,71.037-25.782,0.424-3.259,2.488-2.706.711-3.484-5.052-8.161-14.45-10.387-21.312-16.723C385.413,593.259,368.27,575.378,348.376,564.359Zm221.638,0.7c7.755,27.259,11.973,66.057,12.076,98.251h2.842c0.939-3.36,54.187-49.086,59.671-52.261,6.935-4.016,19.4-9.844,19.891-17.421-10.807-.071-19.438-5-27-8.361-7.049-3.138-13.457-.044-19.89-3.484C604.315,574.67,585.114,569.445,570.014,565.056Zm-19.181,4.878c-13.752,7.549-24.793,17.8-36.939,26.479-3.629,2.593-11.236,3.571-14.918,6.271-8.064,5.913-16.949,19.041-29.125,20.208v5.574c14.74,0.9,30.878,11.073,41.2,17.421h7.815c14.077,6.558,30.245,14.042,44.753,20.207V660.52c-6.673-4.818,1.166-15.914-2.841-23.692C555.063,625.732,556.1,575.913,550.833,569.934Zm-301.2,15.33c-1.689,2.047-1.525,2.178-4.973,2.787v2.787c4.93,2.317,4,9.2,8.525,11.846v-5.575C251.033,593.97,251.365,589.589,249.634,585.264Zm556.935,8.361v2.788q0.356-1.045.71-2.091l1.421-.7h-2.131Zm-2.842,4.878c-0.38,13.488-11.287,19.855-14.917,29.963,5.748,1.4,6.686,6.035,11.366,8.362,0.008-14.938,6.156-23.747,6.393-38.325h-2.842Zm-115.081,4.181c-4,9.666-21.337,16.762-29.835,23-2.365,1.734-3.543,6.259-5.683,8.362-7.681,7.546-18.49,11.3-27,18.117-3.349,2.683-5.486,8.969-9.235,11.149-4.824,2.806-27.006,17.055-29.125,20.208V695.36c10.333,4.694,6.875,65.688,23.442,66.2,3.145-5.993,15.075-2.265,21.312-5.575,12.959-6.876,61.757-20.177,79.562-20.207,3.322-10.8,11.968-22.993,17.759-32.054,3.5-5.483,2.6-11.023,5.683-16.723,9-16.65,20.107-33.513,27-52.261C739.247,623.517,713.087,611.269,688.646,602.684ZM253.9,606.865c1.279,1.423.011,0.492,2.131,1.394Q254.962,607.562,253.9,606.865Zm23.443,6.968c5.575,19.736,14.728,39.93,14.918,63.41,9.044-2.216,22.421-6.884,29.835-11.846-6.913-18.471-36.306-33.051-41.912-51.564h-2.841ZM434.332,643.1l-0.711,2.788c-7.535-.016-63.736,21.938-68.2,25.782l0.711,2.787c8.209,0.755,10.016,5.647,14.918,9.059h4.972c6.478,3.579,12.771,10.426,18.47,14.633,3.238,2.39,7.15.826,10.656,2.787,11.976,6.7,22.754,17.715,36.229,23v-2.787c-6.322-3.461.449-10.944-2.842-17.421-1.8-3.545-4.492-15.734-5.683-19.511V667.488c-2.029-5.279-5.183-18.119-5.683-24.389h-2.841Zm23.442,2.788c6.71,23.868,11.6,56,14.918,80.83,8.788-2.354,72.857-38.324,77.431-43.9l-0.71-2.091c-16.316-.926-35.684-13.076-47.6-20.207-4.339-2.6-17.351-3.765-22.733-6.272C472.031,650.962,468.562,646.172,457.774,645.887Zm322.511,2.09-2.841.7c-0.517,10-11.573,25.693-15.629,35.537,5.8-2.679,27.249-23.569,29.836-29.266C786.515,652.965,786.6,649.555,780.285,647.977ZM336.3,680.727v2.788c-4.91.172-27.527,8.58-29.836,11.149,5.9,12,20.6,20.1,29.836,29.266,11.745,11.656,24.3,23.5,35.519,35.537,2.115,2.271,3.715,6.857,6.393,8.362,7.537,4.238,16.16,2.2,24.863,5.575,20.255,7.845,44.488,14.214,66.065,20.207v-5.574c-3.743-1.788-11.53-30.514-12.076-37.628-10.456-.866-16.573-10.118-23.443-14.633h-5.683c-18.2-12.207-38.352-25.046-56.119-37.628-7.945-5.626-26.042-8.41-29.836-17.421H336.3Zm233,16.724c-20.17,9.4-38.033,22.877-56.83,32.75-7.18,3.772-16.134,4.868-20.6,11.149,15.253-.065,53.073,8.849,63.224,14.633h11.366c3.275,1.436,15.055,5.058,17.759,4.878C578,755.738,573.865,708.914,569.3,697.451Zm-88.086,62.016c0.159,14.609,8.97,20.962,9.235,36.932,8.311-2.12,59.743-16.266,62.513-20.208l-0.711-2.787C526.417,773.491,506.394,759.968,481.217,759.467Zm165.517,11.15V773.4c-14.254-.074-18.659,5.959-32.677,6.271q-0.355,1.394-.71,2.787c2.856,2.174,5.89,7.6,7.1,11.149h2.842c4.328-11.766,27.327-12.155,32.677-22.994h-9.235ZM592.746,785.25l-0.711,2.09c-8.2,1.27-33.6,7.445-37.65,11.846h44.754C597.689,794.487,595.111,789.969,592.746,785.25Z"/>
</svg>
