<svg xmlns="http://www.w3.org/2000/svg" width="1024" height="1024" viewBox="0 0 1024 1024">
  <defs>
    <style>
      .cls-1 {
        fill: #7fff00;
        fill-rule: evenodd;
      }
    </style>
  </defs>
  <path id="_13_1" data-name="13 1" class="cls-1" d="M556.155,184c4.223,0.528,14.783,15.81,18.339,19.952L623.72,261.84,824,495.641c-2.329,4.376-7.521,9.6-11.341,14.05l-22.682,26.415-55.741,64.913L557.6,807c-2.816-1.352-5.01-4.948-7.963-7.587l-68.529-80.369Q385.566,607.353,290,495.641c2.8-7.879,15.464-19.415,21.476-26.415l50.673-59.013Zm3.137,13.77q-39.207,138.243-78.423,276.514l172.29-16.58Zm5.068,3.653q46.083,127.987,92.177,256l154.191,33.159L783.944,459.39Zm-20.028,7.306-242.508,282.7,166.98-16.3Q506.565,341.941,544.332,208.729Zm108.1,252.347L479.663,477.937l-13.03,46.648,173.5-16.58q6.636-23.461,13.272-46.929h-0.965Zm4.1,0.281q-6.636,23.181-13.272,46.367l157.811-15.456Zm-190.628,17.7-152.5,14.893h0.483L454.568,524.3l13.03-44.962v-0.281h-1.689Zm341.683,25.572L683.8,517l-31.852,3.091c-3.431.633-10.415-.689-12.548,1.686L562.188,792.106,808.8,504.633h-1.206Zm-500.46,1.405L541.2,778.618q-43.31-120.4-86.627-240.826Zm327.205,15.455-167.7,16.3L558.568,793.23h0.242v-0.562l77.216-271.175h-1.689Z"/>
</svg>
