<svg xmlns="http://www.w3.org/2000/svg" width="1024" height="1024" viewBox="0 0 1024 1024">
  <defs>
    <style>
      .cls-1 {
        fill: #7fff00;
        fill-rule: evenodd;
      }
    </style>
  </defs>
  <path id="_11_1" data-name="11 1" class="cls-1" d="M502.913,205l193.021,43.728L830,410.55q-8.785,112.234-17.573,224.49L652.284,786h-231L260.573,635.6q-3.827-40.521-7.653-81.05-4.959-51.1-9.92-102.218l36-74.644,26.076-55.427,32.6-22.56L376.5,271.846l65.191-34.537Zm1.7,14.205-105.155,55.7v0.279h0.567L566.97,311.117l105.438-53.755v-0.278Zm183.668,44.842L582.842,318.359l0.567,0.836L747.236,408.6ZM387.27,286.329l9.637,151.8,0.85-.835L552.514,321.98V321.7Zm327.654,6.963q24.941,61.409,49.885,122.829l45.634-7.8-0.851-.835ZM383.585,444.809q-4.675-73.8-9.353-147.618l-0.851.557L263.408,447.037ZM349.289,307.5l-33.445,23.674-28.911,61,0.567-.279ZM563,330.614L404.843,449.265v0.279l185.085,69.909Q576.466,425.043,563,330.614Zm13.889,0.279,26.643,186.889,0.567-.557,143.42-93.306ZM799.672,626.406q8.077-102.765,16.156-205.55l-48.751,8.355q-8.361,103.6-16.723,207.222h0.283ZM752.621,436.732q-71.56,46.507-143.136,93.026c0.1,0.186.189,0.372,0.284,0.557l127.263,101.1h0.284Q744.968,534.085,752.621,436.732Zm-373,21.167-119.611,2.786q34.434,82.295,68.876,164.607l0.567-.279L381.6,457.9h-1.984Zm15.306,2.229q-28.2,90.65-56.4,181.318L532.39,714.977l57.255-181.319ZM260.857,498.007q6.234,64.472,12.471,128.956l45.35,9.191Q289.77,567.088,260.857,498.007ZM601.549,540.9q-27.207,85.917-54.42,171.849L729.663,642.56ZM783.233,643.117l-36.28,7.521-54.7,79.1,91.834-86.621h-0.85Zm-494.033.557,91.834,86.064L326.047,651.2Zm435.078,15.319L553.365,724.725V725h0.566l93.535,45.678,58.388-84.671q7.086-10.166,14.172-20.332C721.125,664.1,724.826,660.1,724.278,658.993Zm-375.839.557L426.1,770.681l93.534-45.956Zm187.636,72.138-83.047,40.664v0.279l167.511-.279Z"/>
</svg>
