<svg xmlns="http://www.w3.org/2000/svg" width="1024" height="1024" viewBox="0 0 1024 1024">
  <defs>
    <style>
      .cls-1 {
        fill: #7fff00;
        fill-rule: evenodd;
      }
    </style>
  </defs>
  <path id="_12_1" data-name="12 1" class="cls-1" d="M473.277,194H604.662l80.68,32.548L743.331,278.9l41.741,36.888q9.383,27.256,18.769,54.518,2.1,33.765,4.2,67.538,0.84,12.882,1.681,25.767a186.181,186.181,0,0,1,0,58.044q-0.84,11.661-1.681,23.326-2.1,31.053-4.2,62.113L781.99,653.742l-49.024,47.2Q712.8,720.6,692.626,740.266L582.531,772H450.305l-79.559-30.921-52.106-46.11-49.305-42.854-18.769-55.6q-2.241-43.529-4.482-87.066c-3.434-21.194-2.31-47.848,1.12-68.351q1.4-18.171,2.8-36.345,1.821-24.408,3.642-48.822,10.785-22.646,21.571-45.3l53.507-52.077L361.5,226.006Zm1.12,13.019L370.185,237.126q-7,17.493-14.007,34.989l70.315,29.294,52.386-.543,73.677-.542,104.492-30.107q7.563-17.493,15.127-34.989l-70.034-28.209H474.4Zm208.984,35.8q-6.582,15.594-13.167,31.192l85.723,77.3,15.128-30.378ZM346.373,259.367q-7,6.916-14.007,13.833l-45.942,45.025q-2.382,5.154-4.763,10.307l50.986-48.551C336.752,276.27,347.382,266.321,346.373,259.367Zm313.476,23.327L559.84,311.444q-4.342,55.327-8.685,110.664l90.765,79.2,99.73-28.479q4.622-54.107,9.245-108.223Zm-311.234.542-82.081,78.115q-3.222,41.359-6.443,82.727c-0.642,3.929-2.52,28.506-1.681,29.564L324.8,500.766l82.641-79.472,10.645-109.307Zm82.641,30.921q-5.043,52.071-10.085,104.154H537.989q4.061-52.479,8.124-104.968ZM777.788,336.94l-13.447,26.853q-2.1,25.9-4.2,51.805-1.26,14.917-2.521,29.836c-3.525,21.451-3.887,46.674-.28,68.622q1.121,16.543,2.241,33.091,1.541,24,3.081,48.008,4.2,10.713,8.405,21.428l6.163,16v-0.543q6.721-14.238,13.446-28.479,1.541-23.188,3.082-46.381,1.121-15.459,2.241-30.921c3.559-22.015,3.352-49.9-.28-72.148q-1.26-19.12-2.521-38.244-1.261-21.291-2.522-42.584-3.64-10.442-7.283-20.885Q780.589,344.672,777.788,336.94Zm-361.38,94.119-82.921,80.014q3.5,55.869,7,111.748l96.088,84.354h122.7q41.037-40.951,82.081-81.913-3.921-56.953-7.844-113.918L541.35,431.059H416.408ZM741.09,486.39l-94.127,26.853q3.642,53.155,7.284,106.323l94.687-27.937q-3.5-52.614-7-105.239h-0.84Zm-482.96,1.357q2.8,51.8,5.6,103.611l63.032,24.682q-3.361-51.529-6.724-103.069Zm493.045,116.63-99.17,29.294-82.08,81.641q7.422,21.154,14.847,42.313L685.622,728.6l82.921-80.557q-6.162-16-12.326-32.006C754.994,613.023,754.06,605.713,751.175,604.377Zm-482.96,2.713q6.3,18.712,12.606,37.43l38.1,33.091,59.109,52.348,63.312,24.411q-6.584-18.577-13.167-37.159l-40.62-35.261L330.686,631.5ZM443.3,720.194q7,19.527,14.007,39.058H571.045l-13.727-39.058H443.3Z"/>
</svg>
