<svg xmlns="http://www.w3.org/2000/svg" width="1024" height="1024" viewBox="0 0 1024 1024">
  <defs>
    <style>
      .cls-1 {
        fill: #7fff00;
        fill-rule: evenodd;
      }
    </style>
  </defs>
  <path id="_8_1" data-name="8 1" class="cls-1" d="M447.075,216l197.407,10.971L784,380.3V585.812L643.948,725.227,608.735,741.55,578.857,756,382.251,744.494,243,591.966V386.723L381.451,249.984Zm2.935,12.844-41.616,21.675v0.268l168.863,8.295,40.015-20.6V238.21Zm189.67,12.31-50.952,26.224,0.267,0.8L714.641,406.793,767.194,381.1l-1.6-1.6ZM388.921,262.561q-19.738,74.784-39.482,149.584l177.933,10.971,42.415-151.457Zm-17.34,14.717L261.674,386.188q0.132,0.269.266,0.535L336.635,410v-0.535q12.936-48.7,25.876-97.4C364.124,306.6,372.4,281.073,371.581,277.278Zm209.677,1.338Q565.655,333.6,550.047,388.6q-3.735,13.244-7.47,26.491c-0.708,2.355-2.685,7.025-.533,7.76l157.925-13.379-2.4-2.409Zm189.4,114.8L719.976,419.1q0.134,92.177.267,184.371L771.2,579.122V405.99C771.2,402.915,772.272,395.284,770.662,393.413ZM255.805,398.23q0.133,93.38.266,186.779l78.7,24.886q-0.133-93.648-.267-187.314Zm282.5,224.777,168.863-14.985V421.778L538.309,435.96V623.007ZM347.572,424.989V612.571l177.932,10.7V435.96Zm-77.1,177.949,97.369,106.5Q356.377,678.67,344.9,647.893c-1.735-4.437-6.409-22.242-9.336-24.083Zm475.109,2.408-28.277,13.647L608.468,727.635l28.011-13.112,75.228-75.193ZM695.7,621.669L540.977,635.584q19.338,51.105,38.681,102.22L591.4,726.03,696.5,621.669h-0.8Zm-345.2,4.014,39.748,106.5,177.4,10.436v-0.267q-20.138-53.112-40.281-106.234Z"/>
</svg>
