<svg xmlns="http://www.w3.org/2000/svg" width="1024" height="1024" viewBox="0 0 1024 1024">
  <defs>
    <style>
      .cls-1 {
        fill: #7fff00;
        fill-rule: evenodd;
      }
    </style>
  </defs>
  <path id="_7_1" data-name="7 1" class="cls-1" d="M458,235c8.051-.069,18.7,4.023,26.03,6.063l47.6,11.622,158.412,38.654,57.018,13.9c5.61,1.554,17,1.849,19.832,6.316,1.967,3.1.745,31.431,0.744,37.9v101.31q-0.123,91.827-.248,183.671c-1.548,4.035-8.771,7.162-12.147,9.6l-30,21.98-96.683,70.74L588.641,765.8c-4.587,1.153-15.788-3.157-19.833-4.295l-47.6-11.622L352.387,708.705l-52.8-12.884c-5.017-1.3-17.651-2.666-20.08-6.064-2.646-3.7-.992-15.508-0.992-21.222V612.2q0.124-122.772.248-245.569c1.566-4.262,9.117-7.559,12.643-10.106l35.2-25.769,88.75-64.93C429.4,255.619,442.774,243.753,458,235Zm0.991,13.137L298.1,365.869l0.5,0.253L517,419.682l51.812,12.632c2.781,0.79,16.172,4.268,17.354,3.537L748.044,317.362l-217.661-52.8L483.777,253.19C475.825,251.135,468.631,248.138,458.986,248.137Zm-4.214,14.148h8.677v14.654h-8.677V262.285Zm0,29.054h8.677v14.654h-8.677V291.339Zm0,28.8h8.677v14.653h-8.677V320.141Zm300.957,6.316-162.874,119.5q0.124,70.227.248,140.469l11.651,3.032-1.983,8.337-9.916-2.274V748.37q81.181-59.364,162.378-118.742c1.908-24.1.744-51.675,0.744-77.056V415.64Q755.853,371.053,755.729,326.457ZM454.772,348.942h8.677V363.6h-8.677V348.942Zm8.677,72.508h-8.677V416.4L290.163,376.48V681.167c0.082,0.169.165,0.337,0.248,0.506L581.2,752.413q-0.123-152.581-.247-305.193L463.449,418.671v2.779Zm-8.677-43.707h8.677V392.4h-8.677V377.743Zm0,57.855h8.677v14.654h-8.677V435.6Zm0,28.8h8.677v14.653h-8.677V464.4Zm0,28.8h8.677v14.653h-8.677V493.2Zm0,28.8h8.677v14.654h-8.677V522Zm0,29.054h8.677q0.123,1.894.247,3.79l3.223,0.758q-0.867,4.294-1.735,8.59c-7.4-.976-4.268.1-9.668,1.768l-4.711-7.074,3.967-3.032v-4.8Zm25.782,7.832,13.883,3.284q-0.991,4.422-1.984,8.843l-13.882-3.537Zm27.517,6.821,13.883,3.285v0.252q-0.867,4.168-1.735,8.338h-0.992L506.088,574.3ZM439.65,566.72c2.207,1.143,4.146,4.971,5.454,7.074l-0.5.758L433.7,581.879l-4.71-7.074Zm95.939,5.558,14.131,3.537q-0.992,4.294-1.984,8.59l-14.13-3.284Zm27.517,6.822,14.131,3.284v0.253l-1.983,8.337h-0.992l-13.139-3.285v-0.252Zm-145.272,3.537,5.454,7.074c-1.377,1.7-10.463,8.2-11.652,7.831l-4.462-6.568c0.083-.253.165-0.506,0.248-0.758Zm200.307,9.853,14.131,3.284-1.983,8.842h-0.248l-13.883-3.789Zm-221.875,6.063a18.915,18.915,0,0,1,5.206,7.579c-3.78,1.569-7.684,7.352-11.4,7.58l-4.711-6.822Zm249.393,0.758,14.13,3.284-1.983,8.59-14.13-3.284Zm27.517,6.569,14.131,3.284v0.758l-1.983,8.085h-0.248c-2.642-.725-13.128-2.415-13.635-4.548Q672.308,609.67,673.176,605.88Zm27.518,6.821,14.13,3.284-1.983,8.59-13.883-3.284Q699.827,617,700.694,612.7ZM374.451,614.47c1.806,1.541,4.521,5.1,5.206,7.579-3.772,1.566-7.672,7.4-11.4,7.579l-4.71-6.821Zm354.008,4.8,13.883,3.537q-1.116,4.294-2.231,8.59l-13.635-3.285ZM352.635,630.386a18.52,18.52,0,0,1,5.206,7.579L346.933,645.8l-0.5-.252-4.71-6.822,0.5-.758ZM330.819,646.3c1.821,1.553,4.515,5.067,5.206,7.579l-10.908,7.832-0.5-.253-4.711-6.821,0.5-.758Zm-22.063,16.169c2.018,0.7,4.887,5.173,5.454,7.326L303.3,677.63l-0.5-.252-4.462-7.074Z"/>
</svg>
