<svg xmlns="http://www.w3.org/2000/svg" width="1024" height="1024" viewBox="0 0 1024 1024">
  <defs>
    <style>
      .cls-1 {
        fill: #7fff00;
        fill-rule: evenodd;
      }
    </style>
  </defs>
  <path id="_5_1" data-name="5 1" class="cls-1" d="M604.013,255c8.026-.261,22.8,8.227,29.7,11.266l63.655,26.654,31.452,13.189q21.342,53.852,42.686,107.714l20.969,52.483c1.3,3.325,8.066,16.172,7.489,19.509q-35.943,123.363-71.892,246.752L472.71,754,348.4,710.585Q313.7,619.78,279,528.955q35.692-125.973,71.393-251.973Zm0,13.189L381.846,287.7h0.5l88.118,37.645L609.005,313.8l87.619-7.419ZM358.631,291.82q-30.327,106.742-60.659,213.5L458.98,334.411ZM714.6,318.2l-231.653,19.51,2.247,2.473L654.687,540.5h0.249l60.909-222.022V318.2H714.6Zm10.484,12.091-61.158,223.4,58.662,153.327,0.5-.275q32.075-110.726,64.154-221.473ZM469.464,341.556L293.728,528.131l2.5,2.748L473.958,738.063l3.994-4.4L648.945,553.411ZM303.713,559.181q19.719,51.516,39.441,103.043,5.241,13.737,10.484,27.478c1.128,2.918,1.924,8.569,4.244,10.166l95.606,33.524Zm351.473,5.771-165,174.485,224.663-18.96Q685.02,642.722,655.186,564.952Z"/>
</svg>
