<svg xmlns="http://www.w3.org/2000/svg" width="1024" height="1024" viewBox="0 0 1024 1024">
  <defs>
    <style>
      .cls-1 {
        fill: #7fff00;
        fill-rule: evenodd;
      }
    </style>
  </defs>
  <path id="_6_1" data-name="6 1" class="cls-1" d="M476.918,237H595.059l106.1,48.748,27.591,39.475,23.829,33.116,25.083,43.184,18.561,31q1.38,22.385,2.759,44.774,2.508,38.147,5.017,76.3l-14.548,38.681q-14.421,39.6-28.846,79.214l-33.109,31L686.11,742.226,600.577,787H483.189L376.837,741.961l-28.093-42.124c-16.241-24.2-32.163-48.6-47.909-73.651l-20.066-31.527Q277.885,533.6,275,472.525q20.942-59.736,41.889-119.485l71.988-72.326Zm5.518,12.452-14.3,30.2H569.725l13.8-29.937v-0.265H482.436Zm113.626,2.119-15.05,32.852,31.1,25.7,53.929,45.569h62.205c-0.083-.265-0.167-0.53-0.25-0.8l-34.866-59.08Zm-130.933,5.3L395.9,291.311l-58.694,59.08,22.073-.265L445.313,287.6l8.529-5.828Zm4.013,35.5L501.75,348.8l3.763-3.974,52.674-52.457H469.142Zm104.6,2.119-63.71,63.849L568.471,405.5c4.894,3.9,17.071,16.21,22.324,17.751l63.961-60.67-1-1.325Zm-117.639.8L368.81,358.339l37.625,61.994,85.784-63.054v-0.794Q478.8,333.57,465.38,310.651C463.512,307.488,458.826,296.545,456.1,295.285Zm-129.93,67.823L289.8,467.756h26.086l36.12-104.648H326.169Zm173.825,3.709L411.7,431.99q13.669,53.644,27.341,107.3h107.1q14.547-40.927,29.1-81.864c1.49-4,8.552-21.772,7.776-24.109Zm172.07,1.59,25.584,105.178h64.463L734.52,368.407H672.064Zm-310.026,2.649-31.1,90.077L395.9,426.957Zm298.487,2.914-58.694,55.9v0.265L684.1,468.551v-0.265Q672.316,421.134,660.525,373.97Zm93.309,19.87,17.558,67.823,0.5-.265,11.538-25.7ZM400.666,438.614l-73.493,38.945L354.262,578.5l73.243-36.561Q414.086,490.282,400.666,438.614ZM594.055,440.2Q576,491.331,557.936,542.467l90.8,41.33,36.622-100.675Zm191.634,19.605c-2.852,9.377-10.054,15.831-7.775,26.229h-1.5q2.759,42.913,5.518,85.838v-0.53l10.033-20.4q-2.005-29.4-4.013-58.815Q786.817,475.971,785.689,459.808Zm-498.4,20.4q2.632,55.1,5.267,110.212l34.364,54.311q8.652-28.61,17.307-57.225-14.3-53.644-28.595-107.3H287.291Zm409.856,5.829q-19.188,52.584-38.377,105.178,23.323,33.246,46.654,66.5l3.01-3.179,62.707-61.73q-3.385-53.377-6.772-106.767H697.147Zm-251.332,168.5,104.6,0.795q-3.009-51.657-6.02-103.324H440.8v0.265Q443.308,603.4,445.815,654.534Zm-17.056-99.085-66.721,33.117,0.752,1.059,70.734,57.491Q431.142,601.286,428.759,555.449Zm127.923,0.265q2.632,47.286,5.267,94.581l77.507-56.7v-0.265ZM353.51,598.1q-6.772,22.253-13.545,44.509c-0.725,2.135-4.209,14.115-3.763,14.571l81.018,63.584,16.054-57.491Zm296.982,2.914q-42.636,31.126-85.282,62.259L608.6,727.92l0.5-.53,87.038-61.729Zm113.877,15.631L709.939,670.7l-14.047,45.038,54.43-51.662,5.268-18.28ZM444.561,666.986q-8.4,30.463-16.806,60.934l95.817,45.568,74.246-39.21-44.146-66.233Zm248.572,15.9-66.47,47.687h51.922Zm-337.115,6.093,27.591,41.064,21.07-2.914Zm62.206,49.012-13.545,2.12h0.5l65.968,27.818c4.68,2.026,16.2,9.331,23.829,6.093L438.541,747.26C433.2,744.792,424.323,738.316,418.224,737.987Zm190.129,5.034-59.2,31v0.265h48.41l59.447-31v-0.265H608.353Z"/>
</svg>
