<svg xmlns="http://www.w3.org/2000/svg" width="1024" height="1024" viewBox="0 0 1024 1024">
  <defs>
    <style>
      .cls-1 {
        fill: #7fff00;
        fill-rule: evenodd;
      }
    </style>
  </defs>
  <path id="_4_1" data-name="4 1" class="cls-1" d="M528.236,203c5.2,0.486,15.393,7.366,19.816,10l46.766,24.332,162.757,84.622Q777.786,479.829,798,637.734L529.028,794,298.368,673.151Q278.687,516.764,259,360.348Zm2.642,18.925L441.309,438.751l275.577-21.088-7.927-8.11-129.2-136.26L545.41,237.065C542.358,233.2,535.047,224,530.878,221.925Zm-15.589,3.515L279.345,363.862l149.017,73.267,66.583-160.862q7.925-19.194,15.853-38.391C511.618,235.891,515.685,225.841,515.289,225.44Zm45.181,8.381,166.72,176,17.174-80.3ZM749.913,363.862q-6.341,29.466-12.683,58.938l36.991,128.42Q762.068,457.55,749.913,363.862ZM273.268,375.217Q290.7,512.275,308.144,649.359l0.264-.541q56.934-99.887,113.877-199.793ZM717.15,430.37L442.63,451.728,594.554,692.075l125.5-261.435v-0.27H717.15Zm11.89,10.814L607.765,693.7,783.2,630.164v-1.082Zm-297.507,17.3L314.75,663.958h0.528L582.4,697.212l-0.528-.54ZM724.548,665.04L598.781,710.73l-42.274,52.72,168.569-98.41h-0.528ZM339.322,680.18l143.469,74.889,33.819,17.573c2.9,1.513,9.219,6.552,11.89,5.137l54.164-67.319v-0.271Z"/>
</svg>
