<svg xmlns="http://www.w3.org/2000/svg" width="1024" height="1024" viewBox="0 0 1024 1024">
  <defs>
    <style>
      .cls-1 {
        fill: #7fff00;
        fill-rule: evenodd;
      }
    </style>
  </defs>
  <path id="_3_1" data-name="3 1" class="cls-1" d="M482.229,206l97.5,0.285L620.42,216.54l30.521,7.122L729.5,279.78l32.781,49.851,26.565,39.6L814,452.692q-2.4,15.808-4.8,31.62-3.392,24.067-6.783,48.142l-11.3,30.2L769.067,624.18q-13.706,25.065-27.412,50.136l-15.826,29.91-12.717,11.11-25.151,22.789-21.2,11.395-25.151,14.243L596.4,771.454,549.488,780H451.144l-39.282-9.4-31.651-7.122L338.1,731l-36.737-27.916q-16.673-23.927-33.347-47.857l-22.891-32.19L231.282,574.9,218,530.744q6.075-39.876,12.152-79.761,10.6-28.057,21.2-56.118,6.5-17.946,13-35.893l47.477-82.041,18.086-16.237,13.847-13.1,45.216-26.777Zm0.283,13.673-87.888,13.959L359.3,258.985l8.2,15.667,64.432,16.237h95.518l47.477-8.261,36.738-5.982,40.694-23.074-8.761-17.661-66.41-16.238H482.512ZM661.4,264.112l-41.542,23.359q-4.8,33.753-9.608,67.513l28.542,94.005,29.108,39.6,21.76,30.48,30.8,14.813,29.673,14.528L789.7,525.617l10.456-72.071q-12.293-40.3-24.586-80.616l-30.8-45.293q-12.291-18.657-24.586-37.317Zm-313.684,3.419L322,286.047q-10.878,19.225-21.76,38.456l-24.021,41.305-33.064,89.163q-5.51,36.885-11.021,73.779,4.662,6.694,9.326,13.389,0.564-.57,1.13-1.139l10.739-8.831L270.563,518.5q7.772-14.1,15.543-28.2l24.869-43.584q9.889-27.915,19.782-55.834,7.064-19.225,14.13-38.456,5.51-35.178,11.021-70.361C355.908,280.754,348.7,268.142,347.713,267.531ZM368.342,288.9L360.43,339.6l55.106-38.741v-0.285ZM604.6,291.459L544.4,301.714q0.284,0.428.565,0.855l53.129,39.6h0.282l7.348-50.706H604.6Zm-171.255,13.1-76.3,54.124q-16.53,45.573-33.064,91.156l11.587,37.6,14.695,49.566,74.323,56.119,88.736,1.994,81.106-58.4,16.673-46.433,14.413-39.027-15.826-51.275L597.53,358.687l-72.063-54.124H433.34Zm201.21,161.8q-12.009,32.9-24.021,65.8l62.737-12.534-0.565-.57Zm-319.619.855q-14.41,25.635-28.825,51.275l48.325,12.819Q324.681,499.271,314.931,467.22Zm-37.585,62.955-30.238,24.783,10.738,62.67,22.608,31.62,31.369,45.008L372.864,740.4l13.282,10.54,45.5,10.54c4.7,1.239,19.168,5.384,21.195,2.849l27.978-24.214q-4.8-30.62-9.609-61.246l-28.26-38.456L417.8,605.094l-45.781-34.469L341.5,547.267ZM682.874,531.6l-80.54,15.952L520.38,606.518q-12.291,24.5-24.586,49l-11.3,21.649q3.25,20.223,6.5,40.451,1.554,10.539,3.109,21.08l24.02,11.964,30.239,15.668,87.605-15.383,33.064-23.359,45.5-31.62q20.487-37.6,40.977-75.2-5.793-30.05-11.586-60.106L700.961,539.86C695.947,537.286,689.205,531.845,682.874,531.6Zm99.758,13.673L757.48,559.8l7.348,36.463,13.847-38.172C779.449,556.032,783.1,545.667,782.632,545.272ZM435.883,606.8q20.205,28.2,40.412,56.4,0.141-.285.283-0.57,13.845-27.058,27.694-54.124Zm52.846,144.711-17.238,15.1,47.194-.284Z"/>
</svg>
